HIERARCHY
ROOT Hips
{
	OFFSET 0.00000 0.00000 0.00000
	CHANNELS 6 Xposition Yposition Zposition Zrotation Yrotation Xrotation 
	JOINT LHipJoint
	{
		OFFSET 0 0 0
		CHANNELS 3 Zrotation Yrotation Xrotation
		JOINT LeftUpLeg
		{
			OFFSET 1.84395 -1.68683 0.74144
			CHANNELS 3 Zrotation Yrotation Xrotation
			JOINT LeftLeg
			{
				OFFSET 2.27037 -6.23779 0.00000
				CHANNELS 3 Zrotation Yrotation Xrotation
				JOINT LeftFoot
				{
					OFFSET 2.56918 -7.05877 0.00000
					CHANNELS 3 Zrotation Yrotation Xrotation
					JOINT LeftToeBase
					{
						OFFSET 0.22276 -0.61202 1.71784
						CHANNELS 3 Zrotation Yrotation Xrotation
						End Site
						{
							OFFSET 0.00000 -0.00000 0.91613
						}
					}
				}
			}
		}
	}
	JOINT RHipJoint
	{
		OFFSET 0 0 0
		CHANNELS 3 Zrotation Yrotation Xrotation
		JOINT RightUpLeg
		{
			OFFSET -1.76833 -1.68684 0.74144
			CHANNELS 3 Zrotation Yrotation Xrotation
			JOINT RightLeg
			{
				OFFSET -2.49360 -6.85110 0.00000
				CHANNELS 3 Zrotation Yrotation Xrotation
				JOINT RightFoot
				{
					OFFSET -2.55538 -7.02085 0.00000
					CHANNELS 3 Zrotation Yrotation Xrotation
					JOINT RightToeBase
					{
						OFFSET -0.21516 -0.59115 1.68050
						CHANNELS 3 Zrotation Yrotation Xrotation
						End Site
						{
							OFFSET -0.00000 -0.00000 0.89604
						}
					}
				}
			}
		}
	}
	JOINT LowerBack
	{
		OFFSET 0 0 0
		CHANNELS 3 Zrotation Yrotation Xrotation
		JOINT Spine
		{
			OFFSET 0.06382 1.72312 -0.19613
			CHANNELS 3 Zrotation Yrotation Xrotation
			JOINT Spine1
			{
				OFFSET -0.00055 1.73507 0.23859
				CHANNELS 3 Zrotation Yrotation Xrotation
				JOINT Neck
				{
					OFFSET 0 0 0
					CHANNELS 3 Zrotation Yrotation Xrotation
					JOINT Neck1
					{
						OFFSET 0.03638 1.65562 0.09633
						CHANNELS 3 Zrotation Yrotation Xrotation
						JOINT Head
						{
							OFFSET 0.06388 1.62807 -0.32386
							CHANNELS 3 Zrotation Yrotation Xrotation
							End Site
							{
								OFFSET 0.00995 1.67644 -0.12021
							}
						}
					}
				}
				JOINT LeftShoulder
				{
					OFFSET 0 0 0
					CHANNELS 3 Zrotation Yrotation Xrotation
					JOINT LeftArm
					{
						OFFSET 3.09648 1.42991 0.28122
						CHANNELS 3 Zrotation Yrotation Xrotation
						JOINT LeftForeArm
						{
							OFFSET 5.11878 -0.00000 -0.00000
							CHANNELS 3 Zrotation Yrotation Xrotation
							JOINT LeftHand
							{
								OFFSET 3.59971 -0.00000 0.00000
								CHANNELS 3 Zrotation Yrotation Xrotation
								JOINT LeftFingerBase
								{
									OFFSET 0 0 0
									CHANNELS 3 Zrotation Yrotation Xrotation
									JOINT LeftHandIndex1
									{
										OFFSET 0.62877 -0.00000 0.00000
										CHANNELS 3 Zrotation Yrotation Xrotation
										End Site
										{
											OFFSET 0.50693 -0.00000 0.00000
										}
									}
								}
								JOINT LThumb
								{
									OFFSET 0 0 0
									CHANNELS 3 Zrotation Yrotation Xrotation
									End Site
									{
										OFFSET 0.51467 -0.00000 0.51467
									}
								}
							}
						}
					}
				}
				JOINT RightShoulder
				{
					OFFSET 0 0 0
					CHANNELS 3 Zrotation Yrotation Xrotation
					JOINT RightArm
					{
						OFFSET -3.33565 1.14597 0.05047
						CHANNELS 3 Zrotation Yrotation Xrotation
						JOINT RightForeArm
						{
							OFFSET -5.49020 -0.00000 0.00000
							CHANNELS 3 Zrotation Yrotation Xrotation
							JOINT RightHand
							{
								OFFSET -3.20659 -0.00000 -0.00000
								CHANNELS 3 Zrotation Yrotation Xrotation
								JOINT RightFingerBase
								{
									OFFSET 0 0 0
									CHANNELS 3 Zrotation Yrotation Xrotation
									JOINT RightHandIndex1
									{
										OFFSET -0.69188 -0.00000 0.00000
										CHANNELS 3 Zrotation Yrotation Xrotation
										End Site
										{
											OFFSET -0.55781 -0.00000 0.00000
										}
									}
								}
								JOINT RThumb
								{
									OFFSET 0 0 0
									CHANNELS 3 Zrotation Yrotation Xrotation
									End Site
									{
										OFFSET -0.56633 -0.00000 0.56633
									}
								}
							}
						}
					}
				}
			}
		}
	}
}
MOTION
Frames: 6
Frame Time: .0083333
0.6816 17.3987 8.792 0 0 0 0 0 0 -21 0 0 0 0 0 0 0 0 0 0 0 0 0 0 21 0 0 0 0 0 0 0 0 0 0 0 0 0 0 0 0 0 0 0 0 0 0 -16 0 0 21 0 0 11 0 0 0 -8 0 0 0 0 0 0 0 0 0 0 0 0 0 0 0 0 0 0 0 0 8 0 0 0 0 0 0 0 0 0 0 0 0 0 0 0 0 0
0.6816 17.3987 8.7920 -8.4713 -0.6819 9.4583 0.0000 0.0000 0.0000 -16.4604 -40.3062 20.8716 0.0490 -1.4280 -3.9274 -5.5827 41.6837 -38.2626 0.2032 2.9026 8.0076 0.0000 0.0000 0.0000 26.4693 25.9282 5.6576 -0.0048 -0.4480 1.2310 1.3551 -23.2827 -21.5765 -0.0231 -0.9815 2.6978 7.1355 0.9456 0.3494 0.8374 1.7182 -8.4951 -3.2321 0.3428 -9.0328 -3.1844 -8.8088 -6.8857 7.8905 -13.1759 17.3497 1.9091 -5.9439 7.1897 0.0000 -0.0000 0.0000 -90.3130 7.0848 -18.0769 12.4148 -20.4238 -2.2449 -0.0000 -0.0000 24.3483 16.5031 -9.4973 -2.7987 -7.1250 0.0000 -0.0000 -7.4686 20.1230 4.4810 0.0000 -0.0000 0.0000 94.4957 -11.2033 -15.5514 -15.7401 25.1670 -3.5347 0.0000 0.0000 40.3986 5.6701 -30.0225 -2.8439 7.1250 -0.0000 -0.0000 38.9872 -55.4772 -11.2629
0.6824 17.4024 8.7880 -8.4880 -0.7734 9.3877 0.0000 0.0000 0.0000 -16.6759 -40.4746 21.1923 0.0484 -1.4200 -3.9051 -5.4827 41.7092 -38.8736 0.2340 3.1132 8.5940 0.0000 0.0000 0.0000 26.5053 25.8755 5.7104 -0.0047 -0.4429 1.2169 1.3560 -23.2196 -21.4075 -0.0171 -0.8450 2.3224 7.0905 0.8375 0.4851 1.0560 1.5974 -8.4722 -2.9675 0.2943 -9.1072 -3.8701 -8.8056 -6.8887 7.9860 -13.1032 17.3896 2.0507 -5.9429 7.2503 0.0000 0.0000 0.0000 -90.8182 7.0854 -18.7920 12.4285 -20.4441 -2.2497 -0.0000 -0.0000 24.5976 16.2988 -9.8003 -2.8493 -7.1250 0.0000 -0.0000 -7.6099 19.8224 4.6190 0.0000 0.0000 0.0000 93.9682 -11.1884 -15.2707 -15.6394 25.0293 -3.4920 0.0000 0.0000 40.3815 5.7178 -30.0212 -2.8679 7.1250 -0.0000 -0.0000 39.0294 -55.4667 -11.2675
0.6859 17.4027 8.7833 -8.5177 -0.8143 9.3834 0.0000 0.0000 0.0000 -16.7503 -40.5916 21.2953 0.0471 -1.4006 -3.8517 -5.4181 41.7013 -39.1879 0.2524 3.2326 8.9269 0.0000 0.0000 0.0000 26.4760 25.7238 5.5962 -0.0048 -0.4493 1.2345 1.3364 -23.0461 -21.2169 -0.0146 -0.7807 2.1455 7.1017 0.7150 0.5651 1.2774 1.4567 -8.4739 -2.7282 0.2318 -9.1772 -4.5584 -8.7881 -6.9741 8.0690 -13.0131 17.5075 2.1862 -5.9300 7.3489 0.0000 0.0000 0.0000 -91.3241 7.0968 -19.3682 12.4490 -20.4746 -2.2569 -0.0000 -0.0000 24.7875 16.4180 -9.8701 -2.8915 -7.1250 0.0000 -0.0000 -7.5242 19.7436 4.5794 0.0000 0.0000 0.0000 93.4476 -11.1729 -14.9815 -15.5550 24.9135 -3.4564 0.0000 0.0000 40.4947 5.8006 -30.0960 -2.9162 7.1250 -0.0000 -0.0000 39.1698 -55.5095 -11.3612
0.6923 17.4014 8.7785 -8.5169 -0.8304 9.3774 0.0000 0.0000 0.0000 -16.7189 -40.4665 21.2023 0.0474 -1.4047 -3.8631 -5.4364 41.6612 -38.9789 0.2473 3.2002 8.8366 0.0000 0.0000 0.0000 26.3790 25.4323 5.4163 -0.0050 -0.4582 1.2589 1.2983 -22.7746 -21.0183 -0.0126 -0.7258 1.9946 7.1254 0.5752 0.6577 1.4997 1.2947 -8.4703 -2.4927 0.1581 -9.2500 -5.3452 -8.7655 -7.1164 8.2540 -12.9195 17.6345 2.3678 -5.9119 7.4739 -0.0000 -0.0000 0.0000 -91.8671 7.1143 -19.7857 12.5031 -20.5548 -2.2758 -0.0000 -0.0000 24.7740 16.5513 -9.7514 -2.8816 -7.1250 0.0000 -0.0000 -7.4308 19.8580 4.5025 -0.0000 -0.0000 0.0000 92.8889 -11.1374 -14.6609 -15.4794 24.8097 -3.4246 0.0000 0.0000 40.6777 5.9153 -30.1973 -2.9832 7.1250 -0.0000 -0.0000 39.3624 -55.5667 -11.4891
0.6896 17.4067 8.7849 -8.3954 -0.8913 9.5402 0.0000 0.0000 0.0000 -16.7106 -40.5053 20.9961 0.0480 -1.4138 -3.8883 -5.5439 41.8088 -38.8382 0.2288 3.0789 8.4986 0.0000 0.0000 0.0000 26.0221 25.0741 4.8245 -0.0074 -0.5543 1.5231 1.2278 -22.3019 -20.7444 -0.0120 -0.7064 1.9413 6.8277 0.4410 0.3349 1.7509 1.0856 -8.4632 -2.0395 0.0953 -9.0739 -6.1891 -8.6973 -7.1842 8.4993 -12.7613 17.7115 2.5902 -5.8659 7.5716 -0.0000 -0.0000 0.0000 -92.4189 7.2548 -19.5570 12.6361 -20.7518 -2.3228 -0.0000 -0.0000 23.9691 16.4620 -9.2714 -2.7256 -7.1250 0.0000 -0.0000 -7.5014 20.3583 4.4611 -0.0000 -0.0000 0.0000 92.2362 -11.0177 -14.2869 -15.2843 24.5406 -3.3431 0.0000 0.0000 40.8542 5.7033 -30.4279 -2.8956 7.1250 -0.0000 -0.0000 39.3722 -55.7910 -11.7200
